# picocad model
mtllib gem1.mtl
o gem1
v 0.5002 -0.7498 0.5
v -0.5002 -0.7498 0.5
v -1 0.0004 0.5
v -0.5002 0.7498 0.5
v 0.4999 0.75 0.5
v 1 0.0004 0.5
v 0.5001 -0.7498 -0.4999
v -0.4999 -0.75 -0.4999
v -0.9998 0.0004 -0.5
v -0.5002 0.7498 -0.4999
v 0.4999 0.75 -0.4999
v 0.9999 0.0004 -0.5
v 0 -0.25 -1.4999
v 0 -0.25 -1.5
v 0.25 0 -1.5
v -0 0.25 -1.5
v -0.0002 0.2497 -1.4999
v -0.25 0.0003 -1.5
v 0.0002 -0.2498 1.5
v -0.0002 -0.2498 1.5
v -0.2499 0.0004 1.5
v -0.0002 0.2498 1.5
v -0 0.25 1.5
v 0.2499 0.0004 1.5

vt 0.6562 0.9688
vt 0.6562 0.9062
vt 0.5938 0.9062
vt 0.5938 0.9688
vt 0.6562 0.9688
vt 0.6562 0.9062
vt 0.5938 0.9062
vt 0.5938 0.9688
vt 0.6562 0.9688
vt 0.6562 0.9062
vt 0.5938 0.9062
vt 0.5938 0.9688
vt 0.5938 0.9062
vt 0.5938 0.9688
vt 0.6562 0.9688
vt 0.6562 0.9062
vt 0.6562 0.9688
vt 0.6562 0.9062
vt 0.5938 0.9062
vt 0.5938 0.9688
vt 0.6562 0.9688
vt 0.6562 0.9062
vt 0.5938 0.9062
vt 0.5938 0.9688
vt 0.5938 1
vt 0.6562 1
vt 0.6562 0.9375
vt 0.5938 0.9375
vt 0.5938 1
vt 0.6562 1
vt 0.6562 0.9375
vt 0.5938 0.9375
vt 0.5938 1
vt 0.6562 1
vt 0.6562 0.9375
vt 0.5938 0.9375
vt 0.5938 1
vt 0.6562 1
vt 0.6562 0.9375
vt 0.5938 0.9375
vt 0.5938 1
vt 0.6562 1
vt 0.6562 0.9375
vt 0.5938 0.9375
vt 0.5938 1
vt 0.6562 1
vt 0.6562 0.9375
vt 0.5938 0.9375
vt 0.5938 1
vt 0.6562 1
vt 0.6875 0.9375
vt 0.6562 0.875
vt 0.5938 0.875
vt 0.5625 0.9375
vt 0.5938 0.9844
vt 0.6562 0.9844
vt 0.6562 0.9219
vt 0.5938 0.9219
vt 0.5938 0.9844
vt 0.6562 0.9844
vt 0.6562 0.9219
vt 0.5938 0.9219
vt 0.5938 0.9844
vt 0.6562 0.9844
vt 0.6562 0.9219
vt 0.5938 0.9219
vt 0.5938 0.9844
vt 0.6562 0.9844
vt 0.6562 0.9219
vt 0.5938 0.9219
vt 0.5938 0.9844
vt 0.6562 0.9844
vt 0.6562 0.9219
vt 0.5938 0.9219
vt 0.5938 0.9844
vt 0.6562 0.9844
vt 0.6562 0.9219
vt 0.5938 0.9219
vt 0.5938 0.9844
vt 0.6562 0.9844
vt 0.6875 0.9375
vt 0.6562 0.8906
vt 0.5938 0.8906
vt 0.5625 0.9375

vn -0.8322 -0.5545 0.0001
vn -0.832 0.5549 0.0002
vn -0.0002 1 0
vn 0.8319 0.5549 0
vn 0.8322 -0.5545 0
vn 0 -1 0
vn 0.0002 -0.8945 0.4472
vn 0.5775 -0.5773 0.5772
vn 0.6246 0.6248 0.4686
vn -0.0002 0.8945 0.4471
vn -0.5768 0.5779 0.5774
vn -0.6249 -0.6246 0.4685
vn 0 -0.0004 1
vn 0 -0.8944 -0.4472
vn -0.5779 -0.5768 -0.5774
vn -0.6244 0.6252 -0.4683
vn -0.0002 0.8944 -0.4473
vn 0.5769 0.5778 -0.5774
vn 0.6252 -0.624 -0.4689
vn 0 0 -1

usemtl gem1_mtl
s off
f 3/4/1 9/3/1 8/2/1 2/1/1 
f 4/8/2 10/7/2 9/6/2 3/5/2 
f 5/12/3 11/11/3 10/10/3 4/9/3 
f 11/16/4 5/15/4 6/14/4 12/13/4 
f 1/20/5 7/19/5 12/18/5 6/17/5 
f 2/24/6 8/23/6 7/22/6 1/21/6 
f 14/28/7 7/27/7 8/26/7 13/25/7 
f 15/32/8 12/31/8 7/30/8 14/29/8 
f 16/36/9 11/35/9 12/34/9 15/33/9 
f 17/40/10 10/39/10 11/38/10 16/37/10 
f 18/44/11 9/43/11 10/42/11 17/41/11 
f 13/48/12 8/47/12 9/46/12 18/45/12 
f 18/54/13 17/53/13 16/52/13 15/51/13 14/50/13 13/49/13 
f 20/58/14 2/57/14 1/56/14 19/55/14 
f 21/62/15 3/61/15 2/60/15 20/59/15 
f 22/66/16 4/65/16 3/64/16 21/63/16 
f 23/70/17 5/69/17 4/68/17 22/67/17 
f 24/74/18 6/73/18 5/72/18 23/71/18 
f 19/78/19 1/77/19 6/76/19 24/75/19 
f 24/84/20 23/83/20 22/82/20 21/81/20 20/80/20 19/79/20 

