# picocad model
mtllib rock_1.mtl
o rock_1
v 0.75 0.25 1
v 0.75 0.25 1
v 0 0 1
v -0.75 0.25 1
v -0.75 0.25 1
v 0 0.75 1
v 1.25 0.75 0
v 1.25 0.25 0
v 0 -0.2499 0
v -1.25 0.25 0
v -1.25 0.75 0
v 0 1.25 0
v 1.25 0.25 -0.4999
v 1.25 0.7499 -0.5
v 0 1.25 -0.5
v -1.25 0.7499 -0.5
v -1.25 0.25 -0.4999
v 0 -0.2499 -0.5
v 1 0.25 -1.25
v 1 0.4999 -1.25
v 0 0.9999 -1.25
v -0.7499 0.4999 -1.25
v -0.7499 0.25 -1.25
v 0 -0.25 -1.25

vt 0.5938 0.9844
vt 0.6562 0.9844
vt 0.6875 0.9375
vt 0.6562 0.8906
vt 0.5938 0.8906
vt 0.5625 0.9375
vt 0.6562 0.9688
vt 0.6562 0.9062
vt 0.5938 0.9062
vt 0.5938 0.9688
vt 0.6562 0.9688
vt 0.6562 0.9062
vt 0.5938 0.9062
vt 0.5938 0.9688
vt 0.6562 0.9688
vt 0.6562 0.9062
vt 0.5938 0.9062
vt 0.5938 0.9688
vt 0.5938 0.9062
vt 0.5938 0.9688
vt 0.6562 0.9688
vt 0.6562 0.9062
vt 0.6562 0.9688
vt 0.6562 0.9062
vt 0.5938 0.9062
vt 0.5938 0.9688
vt 0.6562 0.9688
vt 0.6562 0.9062
vt 0.5938 0.9062
vt 0.5938 0.9688
vt 0.5938 1
vt 0.6562 1
vt 0.6562 0.9375
vt 0.5938 0.9375
vt 0.5938 1
vt 0.6562 1
vt 0.6562 0.9375
vt 0.5938 0.9375
vt 0.5938 1
vt 0.6562 1
vt 0.6562 0.9375
vt 0.5938 0.9375
vt 0.5938 1
vt 0.6562 1
vt 0.6562 0.9375
vt 0.5938 0.9375
vt 0.5938 1
vt 0.6562 1
vt 0.6562 0.9375
vt 0.5938 0.9375
vt 0.5938 1
vt 0.6562 1
vt 0.6562 0.9375
vt 0.5938 0.9375
vt 0.5938 1
vt 0.6562 1
vt 0.6562 0.9375
vt 0.5938 0.9375
vt 0.5938 1
vt 0.6562 1
vt 0.6562 0.9375
vt 0.5938 0.9375
vt 0.5938 1
vt 0.6562 1
vt 0.6562 0.9375
vt 0.5938 0.9375
vt 0.5938 1
vt 0.6562 1
vt 0.6562 0.9375
vt 0.5938 0.9375
vt 0.5938 1
vt 0.6562 1
vt 0.6562 0.9375
vt 0.5938 0.9375
vt 0.5938 1
vt 0.6562 1
vt 0.6562 0.9375
vt 0.5938 0.9375
vt 0.5938 1
vt 0.6562 1
vt 0.6875 0.9375
vt 0.6562 0.875
vt 0.5938 0.875
vt 0.5625 0.9375

vn 0 0 -1
vn 0.3123 -0.9371 -0.1561
vn -0.3077 -0.9231 -0.2307
vn -0.8945 -0 -0.4472
vn -0.3369 0.8422 -0.4211
vn 0.5121 0.7682 -0.3841
vn 0.8945 -0 -0.4472
vn 1 0 0
vn 0.3714 0.9285 0.0002
vn -0.3714 0.9285 0
vn -1 0 0
vn -0.3713 -0.9285 0
vn 0.3713 -0.9285 0
vn 0.9487 0 0.3162
vn 0.4082 0.8165 0.4082
vn -0.5346 0.8017 0.2673
vn -0.832 0 0.5548
vn -0.5203 -0.7804 0.3469
vn 0.4472 -0.8944 -0.0001
vn 0 0 1

usemtl rock_1_mtl
s off
f 6/6/1 5/5/1 4/4/1 3/3/1 2/2/1 1/1/1 
f 3/10/2 9/9/2 8/8/2 2/7/2 
f 4/14/3 10/13/3 9/12/3 3/11/3 
f 5/18/4 11/17/4 10/16/4 4/15/4 
f 11/22/5 5/21/5 6/20/5 12/19/5 
f 1/26/6 7/25/6 12/24/6 6/23/6 
f 2/30/7 8/29/7 7/28/7 1/27/7 
f 14/34/8 7/33/8 8/32/8 13/31/8 
f 15/38/9 12/37/9 7/36/9 14/35/9 
f 16/42/10 11/41/10 12/40/10 15/39/10 
f 17/46/11 10/45/11 11/44/11 16/43/11 
f 18/50/12 9/49/12 10/48/12 17/47/12 
f 13/54/13 8/53/13 9/52/13 18/51/13 
f 20/58/14 14/57/14 13/56/14 19/55/14 
f 21/62/15 15/61/15 14/60/15 20/59/15 
f 22/66/16 16/65/16 15/64/16 21/63/16 
f 23/70/17 17/69/17 16/68/17 22/67/17 
f 24/74/18 18/73/18 17/72/18 23/71/18 
f 19/78/19 13/77/19 18/76/19 24/75/19 
f 24/84/20 23/83/20 22/82/20 21/81/20 20/80/20 19/79/20 

